<mxfile>
    <diagram id="C5RBs43oDa-KdzZeNtuy" name="Page-1">
        <mxGraphModel dx="1458" dy="453" grid="1" gridSize="10" guides="1" tooltips="1" connect="1" arrows="1" fold="1" page="1" pageScale="1" pageWidth="827" pageHeight="1169" math="0" shadow="0">
            <root>
                <mxCell id="WIyWlLk6GJQsqaUBKTNV-0"/>
                <mxCell id="WIyWlLk6GJQsqaUBKTNV-1" parent="WIyWlLk6GJQsqaUBKTNV-0"/>
                <mxCell id="zkfFHV4jXpPFQw0GAbJ--0" value="Player" style="swimlane;fontStyle=2;align=center;verticalAlign=top;childLayout=stackLayout;horizontal=1;startSize=26;horizontalStack=0;resizeParent=1;resizeLast=0;collapsible=1;marginBottom=0;rounded=0;shadow=0;strokeWidth=1;" parent="WIyWlLk6GJQsqaUBKTNV-1" vertex="1">
                    <mxGeometry x="-10" y="50" width="160" height="220" as="geometry">
                        <mxRectangle x="230" y="140" width="160" height="26" as="alternateBounds"/>
                    </mxGeometry>
                </mxCell>
                <mxCell id="zkfFHV4jXpPFQw0GAbJ--1" value="-Name: str" style="text;align=left;verticalAlign=top;spacingLeft=4;spacingRight=4;overflow=hidden;rotatable=0;points=[[0,0.5],[1,0.5]];portConstraint=eastwest;" parent="zkfFHV4jXpPFQw0GAbJ--0" vertex="1">
                    <mxGeometry y="26" width="160" height="26" as="geometry"/>
                </mxCell>
                <mxCell id="zkfFHV4jXpPFQw0GAbJ--2" value="-coins:int " style="text;align=left;verticalAlign=top;spacingLeft=4;spacingRight=4;overflow=hidden;rotatable=0;points=[[0,0.5],[1,0.5]];portConstraint=eastwest;rounded=0;shadow=0;html=0;" parent="zkfFHV4jXpPFQw0GAbJ--0" vertex="1">
                    <mxGeometry y="52" width="160" height="26" as="geometry"/>
                </mxCell>
                <mxCell id="zkfFHV4jXpPFQw0GAbJ--3" value="-cards: list&#10;-in game: bool  " style="text;align=left;verticalAlign=top;spacingLeft=4;spacingRight=4;overflow=hidden;rotatable=0;points=[[0,0.5],[1,0.5]];portConstraint=eastwest;rounded=0;shadow=0;html=0;" parent="zkfFHV4jXpPFQw0GAbJ--0" vertex="1">
                    <mxGeometry y="78" width="160" height="42" as="geometry"/>
                </mxCell>
                <mxCell id="zkfFHV4jXpPFQw0GAbJ--4" value="" style="line;html=1;strokeWidth=1;align=left;verticalAlign=middle;spacingTop=-1;spacingLeft=3;spacingRight=3;rotatable=0;labelPosition=right;points=[];portConstraint=eastwest;" parent="zkfFHV4jXpPFQw0GAbJ--0" vertex="1">
                    <mxGeometry y="120" width="160" height="8" as="geometry"/>
                </mxCell>
                <mxCell id="DHhn664vU1ZmPAHcnY8V-55" value="+raise card: void" style="text;html=1;align=center;verticalAlign=middle;resizable=0;points=[];autosize=1;strokeColor=none;" parent="zkfFHV4jXpPFQw0GAbJ--0" vertex="1">
                    <mxGeometry y="128" width="160" height="20" as="geometry"/>
                </mxCell>
                <mxCell id="DHhn664vU1ZmPAHcnY8V-76" value="+gold change: int&amp;nbsp;" style="text;html=1;align=center;verticalAlign=middle;resizable=0;points=[];autosize=1;strokeColor=none;" parent="zkfFHV4jXpPFQw0GAbJ--0" vertex="1">
                    <mxGeometry y="148" width="160" height="20" as="geometry"/>
                </mxCell>
                <mxCell id="qyWshp1NtrnviAnrthgy-28" value="+Add a card: void" style="text;html=1;align=center;verticalAlign=middle;resizable=0;points=[];autosize=1;strokeColor=none;" parent="zkfFHV4jXpPFQw0GAbJ--0" vertex="1">
                    <mxGeometry y="168" width="160" height="20" as="geometry"/>
                </mxCell>
                <mxCell id="zkfFHV4jXpPFQw0GAbJ--17" value="printer" style="swimlane;fontStyle=0;align=center;verticalAlign=top;childLayout=stackLayout;horizontal=1;startSize=26;horizontalStack=0;resizeParent=1;resizeLast=0;collapsible=1;marginBottom=0;rounded=0;shadow=0;strokeWidth=1;" parent="WIyWlLk6GJQsqaUBKTNV-1" vertex="1">
                    <mxGeometry x="580" y="120" width="160" height="216" as="geometry">
                        <mxRectangle x="550" y="140" width="160" height="26" as="alternateBounds"/>
                    </mxGeometry>
                </mxCell>
                <mxCell id="zkfFHV4jXpPFQw0GAbJ--18" value="Street" style="text;align=left;verticalAlign=top;spacingLeft=4;spacingRight=4;overflow=hidden;rotatable=0;points=[[0,0.5],[1,0.5]];portConstraint=eastwest;" parent="zkfFHV4jXpPFQw0GAbJ--17" vertex="1">
                    <mxGeometry y="26" width="160" height="26" as="geometry"/>
                </mxCell>
                <mxCell id="zkfFHV4jXpPFQw0GAbJ--19" value="City" style="text;align=left;verticalAlign=top;spacingLeft=4;spacingRight=4;overflow=hidden;rotatable=0;points=[[0,0.5],[1,0.5]];portConstraint=eastwest;rounded=0;shadow=0;html=0;" parent="zkfFHV4jXpPFQw0GAbJ--17" vertex="1">
                    <mxGeometry y="52" width="160" height="26" as="geometry"/>
                </mxCell>
                <mxCell id="zkfFHV4jXpPFQw0GAbJ--20" value="State" style="text;align=left;verticalAlign=top;spacingLeft=4;spacingRight=4;overflow=hidden;rotatable=0;points=[[0,0.5],[1,0.5]];portConstraint=eastwest;rounded=0;shadow=0;html=0;" parent="zkfFHV4jXpPFQw0GAbJ--17" vertex="1">
                    <mxGeometry y="78" width="160" height="26" as="geometry"/>
                </mxCell>
                <mxCell id="zkfFHV4jXpPFQw0GAbJ--21" value="Postal Code" style="text;align=left;verticalAlign=top;spacingLeft=4;spacingRight=4;overflow=hidden;rotatable=0;points=[[0,0.5],[1,0.5]];portConstraint=eastwest;rounded=0;shadow=0;html=0;" parent="zkfFHV4jXpPFQw0GAbJ--17" vertex="1">
                    <mxGeometry y="104" width="160" height="26" as="geometry"/>
                </mxCell>
                <mxCell id="zkfFHV4jXpPFQw0GAbJ--22" value="Country" style="text;align=left;verticalAlign=top;spacingLeft=4;spacingRight=4;overflow=hidden;rotatable=0;points=[[0,0.5],[1,0.5]];portConstraint=eastwest;rounded=0;shadow=0;html=0;" parent="zkfFHV4jXpPFQw0GAbJ--17" vertex="1">
                    <mxGeometry y="130" width="160" height="26" as="geometry"/>
                </mxCell>
                <mxCell id="zkfFHV4jXpPFQw0GAbJ--23" value="" style="line;html=1;strokeWidth=1;align=left;verticalAlign=middle;spacingTop=-1;spacingLeft=3;spacingRight=3;rotatable=0;labelPosition=right;points=[];portConstraint=eastwest;" parent="zkfFHV4jXpPFQw0GAbJ--17" vertex="1">
                    <mxGeometry y="156" width="160" height="8" as="geometry"/>
                </mxCell>
                <mxCell id="zkfFHV4jXpPFQw0GAbJ--24" value="Validate" style="text;align=left;verticalAlign=top;spacingLeft=4;spacingRight=4;overflow=hidden;rotatable=0;points=[[0,0.5],[1,0.5]];portConstraint=eastwest;" parent="zkfFHV4jXpPFQw0GAbJ--17" vertex="1">
                    <mxGeometry y="164" width="160" height="26" as="geometry"/>
                </mxCell>
                <mxCell id="zkfFHV4jXpPFQw0GAbJ--25" value="Output As Label" style="text;align=left;verticalAlign=top;spacingLeft=4;spacingRight=4;overflow=hidden;rotatable=0;points=[[0,0.5],[1,0.5]];portConstraint=eastwest;" parent="zkfFHV4jXpPFQw0GAbJ--17" vertex="1">
                    <mxGeometry y="190" width="160" height="26" as="geometry"/>
                </mxCell>
                <mxCell id="DHhn664vU1ZmPAHcnY8V-4" value="Assassin" style="swimlane;fontStyle=0;align=center;verticalAlign=top;childLayout=stackLayout;horizontal=1;startSize=26;horizontalStack=0;resizeParent=1;resizeLast=0;collapsible=1;marginBottom=0;rounded=0;shadow=0;strokeWidth=1;" parent="WIyWlLk6GJQsqaUBKTNV-1" vertex="1">
                    <mxGeometry x="-370" y="400" width="140" height="110" as="geometry">
                        <mxRectangle x="130" y="380" width="160" height="26" as="alternateBounds"/>
                    </mxGeometry>
                </mxCell>
                <mxCell id="DHhn664vU1ZmPAHcnY8V-7" value="" style="line;html=1;strokeWidth=1;align=left;verticalAlign=middle;spacingTop=-1;spacingLeft=3;spacingRight=3;rotatable=0;labelPosition=right;points=[];portConstraint=eastwest;" parent="DHhn664vU1ZmPAHcnY8V-4" vertex="1">
                    <mxGeometry y="26" width="140" height="8" as="geometry"/>
                </mxCell>
                <mxCell id="DHhn664vU1ZmPAHcnY8V-8" value="+Kill a card: bool" style="text;align=left;verticalAlign=top;spacingLeft=4;spacingRight=4;overflow=hidden;rotatable=0;points=[[0,0.5],[1,0.5]];portConstraint=eastwest;fontStyle=0" parent="DHhn664vU1ZmPAHcnY8V-4" vertex="1">
                    <mxGeometry y="34" width="140" height="26" as="geometry"/>
                </mxCell>
                <mxCell id="DHhn664vU1ZmPAHcnY8V-10" value="Ambassador" style="swimlane;fontStyle=0;align=center;verticalAlign=top;childLayout=stackLayout;horizontal=1;startSize=26;horizontalStack=0;resizeParent=1;resizeLast=0;collapsible=1;marginBottom=0;rounded=0;shadow=0;strokeWidth=1;" parent="WIyWlLk6GJQsqaUBKTNV-1" vertex="1">
                    <mxGeometry x="-370" y="132" width="150" height="118" as="geometry">
                        <mxRectangle x="130" y="380" width="160" height="26" as="alternateBounds"/>
                    </mxGeometry>
                </mxCell>
                <mxCell id="DHhn664vU1ZmPAHcnY8V-13" value="" style="line;html=1;strokeWidth=1;align=left;verticalAlign=middle;spacingTop=-1;spacingLeft=3;spacingRight=3;rotatable=0;labelPosition=right;points=[];portConstraint=eastwest;" parent="DHhn664vU1ZmPAHcnY8V-10" vertex="1">
                    <mxGeometry y="26" width="150" height="8" as="geometry"/>
                </mxCell>
                <mxCell id="DHhn664vU1ZmPAHcnY8V-14" value="+change cards ; void&#10;+block extortion : void" style="text;align=left;verticalAlign=top;spacingLeft=4;spacingRight=4;overflow=hidden;rotatable=0;points=[[0,0.5],[1,0.5]];portConstraint=eastwest;fontStyle=0" parent="DHhn664vU1ZmPAHcnY8V-10" vertex="1">
                    <mxGeometry y="34" width="150" height="46" as="geometry"/>
                </mxCell>
                <mxCell id="DHhn664vU1ZmPAHcnY8V-16" value="captain" style="swimlane;fontStyle=0;align=center;verticalAlign=top;childLayout=stackLayout;horizontal=1;startSize=26;horizontalStack=0;resizeParent=1;resizeLast=0;collapsible=1;marginBottom=0;rounded=0;shadow=0;strokeWidth=1;" parent="WIyWlLk6GJQsqaUBKTNV-1" vertex="1">
                    <mxGeometry x="-370" y="520" width="170" height="124" as="geometry">
                        <mxRectangle x="130" y="380" width="160" height="26" as="alternateBounds"/>
                    </mxGeometry>
                </mxCell>
                <mxCell id="DHhn664vU1ZmPAHcnY8V-19" value="" style="line;html=1;strokeWidth=1;align=left;verticalAlign=middle;spacingTop=-1;spacingLeft=3;spacingRight=3;rotatable=0;labelPosition=right;points=[];portConstraint=eastwest;" parent="DHhn664vU1ZmPAHcnY8V-16" vertex="1">
                    <mxGeometry y="26" width="170" height="8" as="geometry"/>
                </mxCell>
                <mxCell id="DHhn664vU1ZmPAHcnY8V-20" value="+block extortion:bool" style="text;align=left;verticalAlign=top;spacingLeft=4;spacingRight=4;overflow=hidden;rotatable=0;points=[[0,0.5],[1,0.5]];portConstraint=eastwest;fontStyle=0" parent="DHhn664vU1ZmPAHcnY8V-16" vertex="1">
                    <mxGeometry y="34" width="170" height="26" as="geometry"/>
                </mxCell>
                <mxCell id="DHhn664vU1ZmPAHcnY8V-21" value="+2 coins another player: coins" style="text;align=left;verticalAlign=top;spacingLeft=4;spacingRight=4;overflow=hidden;rotatable=0;points=[[0,0.5],[1,0.5]];portConstraint=eastwest;" parent="DHhn664vU1ZmPAHcnY8V-16" vertex="1">
                    <mxGeometry y="60" width="170" height="26" as="geometry"/>
                </mxCell>
                <mxCell id="DHhn664vU1ZmPAHcnY8V-22" value="Contessa" style="swimlane;fontStyle=0;align=center;verticalAlign=top;childLayout=stackLayout;horizontal=1;startSize=26;horizontalStack=0;resizeParent=1;resizeLast=0;collapsible=1;marginBottom=0;rounded=0;shadow=0;strokeWidth=1;" parent="WIyWlLk6GJQsqaUBKTNV-1" vertex="1">
                    <mxGeometry x="-365" y="650" width="140" height="130" as="geometry">
                        <mxRectangle x="130" y="380" width="160" height="26" as="alternateBounds"/>
                    </mxGeometry>
                </mxCell>
                <mxCell id="DHhn664vU1ZmPAHcnY8V-25" value="" style="line;html=1;strokeWidth=1;align=left;verticalAlign=middle;spacingTop=-1;spacingLeft=3;spacingRight=3;rotatable=0;labelPosition=right;points=[];portConstraint=eastwest;" parent="DHhn664vU1ZmPAHcnY8V-22" vertex="1">
                    <mxGeometry y="26" width="140" height="8" as="geometry"/>
                </mxCell>
                <mxCell id="DHhn664vU1ZmPAHcnY8V-26" value="+no kill: bool" style="text;align=left;verticalAlign=top;spacingLeft=4;spacingRight=4;overflow=hidden;rotatable=0;points=[[0,0.5],[1,0.5]];portConstraint=eastwest;fontStyle=0" parent="DHhn664vU1ZmPAHcnY8V-22" vertex="1">
                    <mxGeometry y="34" width="140" height="26" as="geometry"/>
                </mxCell>
                <mxCell id="DHhn664vU1ZmPAHcnY8V-28" value="Duke" style="swimlane;fontStyle=0;align=center;verticalAlign=top;childLayout=stackLayout;horizontal=1;startSize=26;horizontalStack=0;resizeParent=1;resizeLast=0;collapsible=1;marginBottom=0;rounded=0;shadow=0;strokeWidth=1;" parent="WIyWlLk6GJQsqaUBKTNV-1" vertex="1">
                    <mxGeometry x="-370" y="270" width="150" height="120" as="geometry">
                        <mxRectangle x="130" y="380" width="160" height="26" as="alternateBounds"/>
                    </mxGeometry>
                </mxCell>
                <mxCell id="DHhn664vU1ZmPAHcnY8V-31" value="" style="line;html=1;strokeWidth=1;align=left;verticalAlign=middle;spacingTop=-1;spacingLeft=3;spacingRight=3;rotatable=0;labelPosition=right;points=[];portConstraint=eastwest;" parent="DHhn664vU1ZmPAHcnY8V-28" vertex="1">
                    <mxGeometry y="26" width="150" height="8" as="geometry"/>
                </mxCell>
                <mxCell id="DHhn664vU1ZmPAHcnY8V-78" value="&lt;span style=&quot;text-align: left&quot;&gt;+block outside help :bool&lt;/span&gt;" style="text;html=1;align=center;verticalAlign=middle;resizable=0;points=[];autosize=1;strokeColor=none;" parent="DHhn664vU1ZmPAHcnY8V-28" vertex="1">
                    <mxGeometry y="34" width="150" height="20" as="geometry"/>
                </mxCell>
                <mxCell id="DHhn664vU1ZmPAHcnY8V-79" value="+tax : bool" style="text;html=1;align=center;verticalAlign=middle;resizable=0;points=[];autosize=1;strokeColor=none;" parent="DHhn664vU1ZmPAHcnY8V-28" vertex="1">
                    <mxGeometry y="54" width="150" height="20" as="geometry"/>
                </mxCell>
                <mxCell id="DHhn664vU1ZmPAHcnY8V-34" value="common" style="swimlane;fontStyle=0;align=center;verticalAlign=top;childLayout=stackLayout;horizontal=1;startSize=26;horizontalStack=0;resizeParent=1;resizeLast=0;collapsible=1;marginBottom=0;rounded=0;shadow=0;strokeWidth=1;" parent="WIyWlLk6GJQsqaUBKTNV-1" vertex="1">
                    <mxGeometry x="450" y="400" width="120" height="138" as="geometry">
                        <mxRectangle x="130" y="380" width="160" height="26" as="alternateBounds"/>
                    </mxGeometry>
                </mxCell>
                <mxCell id="DHhn664vU1ZmPAHcnY8V-37" value="" style="line;html=1;strokeWidth=1;align=left;verticalAlign=middle;spacingTop=-1;spacingLeft=3;spacingRight=3;rotatable=0;labelPosition=right;points=[];portConstraint=eastwest;" parent="DHhn664vU1ZmPAHcnY8V-34" vertex="1">
                    <mxGeometry y="26" width="120" height="8" as="geometry"/>
                </mxCell>
                <mxCell id="DHhn664vU1ZmPAHcnY8V-49" value="+foreign aid" style="text;html=1;align=center;verticalAlign=middle;resizable=0;points=[];autosize=1;strokeColor=none;" parent="DHhn664vU1ZmPAHcnY8V-34" vertex="1">
                    <mxGeometry y="34" width="120" height="20" as="geometry"/>
                </mxCell>
                <mxCell id="DHhn664vU1ZmPAHcnY8V-48" value="+pucnh" style="text;html=1;align=center;verticalAlign=middle;resizable=0;points=[];autosize=1;strokeColor=none;" parent="DHhn664vU1ZmPAHcnY8V-34" vertex="1">
                    <mxGeometry y="54" width="120" height="20" as="geometry"/>
                </mxCell>
                <mxCell id="DHhn664vU1ZmPAHcnY8V-52" value="+entry" style="text;html=1;align=center;verticalAlign=middle;resizable=0;points=[];autosize=1;strokeColor=none;" parent="DHhn664vU1ZmPAHcnY8V-34" vertex="1">
                    <mxGeometry y="74" width="120" height="20" as="geometry"/>
                </mxCell>
                <mxCell id="DHhn664vU1ZmPAHcnY8V-42" value="deck_of_cards" style="swimlane;fontStyle=0;align=center;verticalAlign=top;childLayout=stackLayout;horizontal=1;startSize=26;horizontalStack=0;resizeParent=1;resizeLast=0;collapsible=1;marginBottom=0;rounded=0;shadow=0;strokeWidth=1;" parent="WIyWlLk6GJQsqaUBKTNV-1" vertex="1">
                    <mxGeometry x="300" y="112" width="160" height="158" as="geometry">
                        <mxRectangle x="130" y="380" width="160" height="26" as="alternateBounds"/>
                    </mxGeometry>
                </mxCell>
                <mxCell id="DHhn664vU1ZmPAHcnY8V-43" value="-card list" style="text;align=left;verticalAlign=top;spacingLeft=4;spacingRight=4;overflow=hidden;rotatable=0;points=[[0,0.5],[1,0.5]];portConstraint=eastwest;" parent="DHhn664vU1ZmPAHcnY8V-42" vertex="1">
                    <mxGeometry y="26" width="160" height="26" as="geometry"/>
                </mxCell>
                <mxCell id="DHhn664vU1ZmPAHcnY8V-45" value="" style="line;html=1;strokeWidth=1;align=left;verticalAlign=middle;spacingTop=-1;spacingLeft=3;spacingRight=3;rotatable=0;labelPosition=right;points=[];portConstraint=eastwest;" parent="DHhn664vU1ZmPAHcnY8V-42" vertex="1">
                    <mxGeometry y="52" width="160" height="8" as="geometry"/>
                </mxCell>
                <mxCell id="DHhn664vU1ZmPAHcnY8V-46" value="+delete cards deck: list" style="text;align=left;verticalAlign=top;spacingLeft=4;spacingRight=4;overflow=hidden;rotatable=0;points=[[0,0.5],[1,0.5]];portConstraint=eastwest;fontStyle=0" parent="DHhn664vU1ZmPAHcnY8V-42" vertex="1">
                    <mxGeometry y="60" width="160" height="26" as="geometry"/>
                </mxCell>
                <mxCell id="DHhn664vU1ZmPAHcnY8V-47" value="+add letters (random): list&#10;+select card; int " style="text;align=left;verticalAlign=top;spacingLeft=4;spacingRight=4;overflow=hidden;rotatable=0;points=[[0,0.5],[1,0.5]];portConstraint=eastwest;" parent="DHhn664vU1ZmPAHcnY8V-42" vertex="1">
                    <mxGeometry y="86" width="160" height="34" as="geometry"/>
                </mxCell>
                <mxCell id="DHhn664vU1ZmPAHcnY8V-61" value="main" style="swimlane;fontStyle=0;align=center;verticalAlign=top;childLayout=stackLayout;horizontal=1;startSize=26;horizontalStack=0;resizeParent=1;resizeLast=0;collapsible=1;marginBottom=0;rounded=0;shadow=0;strokeWidth=1;" parent="WIyWlLk6GJQsqaUBKTNV-1" vertex="1">
                    <mxGeometry x="630" y="465" width="160" height="120" as="geometry">
                        <mxRectangle x="340" y="380" width="170" height="26" as="alternateBounds"/>
                    </mxGeometry>
                </mxCell>
                <mxCell id="DHhn664vU1ZmPAHcnY8V-63" value="" style="line;html=1;strokeWidth=1;align=left;verticalAlign=middle;spacingTop=-1;spacingLeft=3;spacingRight=3;rotatable=0;labelPosition=right;points=[];portConstraint=eastwest;" parent="DHhn664vU1ZmPAHcnY8V-61" vertex="1">
                    <mxGeometry y="26" width="160" height="8" as="geometry"/>
                </mxCell>
                <mxCell id="qyWshp1NtrnviAnrthgy-1" value="see challenge entry" style="text;html=1;align=center;verticalAlign=middle;resizable=0;points=[];autosize=1;strokeColor=none;" parent="DHhn664vU1ZmPAHcnY8V-61" vertex="1">
                    <mxGeometry y="34" width="160" height="20" as="geometry"/>
                </mxCell>
                <mxCell id="qyWshp1NtrnviAnrthgy-3" value="see counterattack entry" style="text;html=1;align=center;verticalAlign=middle;resizable=0;points=[];autosize=1;strokeColor=none;" parent="DHhn664vU1ZmPAHcnY8V-61" vertex="1">
                    <mxGeometry y="54" width="160" height="20" as="geometry"/>
                </mxCell>
                <mxCell id="qyWshp1NtrnviAnrthgy-16" value="verification winer" style="text;html=1;align=center;verticalAlign=middle;resizable=0;points=[];autosize=1;strokeColor=none;" parent="DHhn664vU1ZmPAHcnY8V-61" vertex="1">
                    <mxGeometry y="74" width="160" height="20" as="geometry"/>
                </mxCell>
                <mxCell id="qyWshp1NtrnviAnrthgy-39" value="make decision" style="text;html=1;align=center;verticalAlign=middle;resizable=0;points=[];autosize=1;strokeColor=none;fontSize=14;" parent="DHhn664vU1ZmPAHcnY8V-61" vertex="1">
                    <mxGeometry y="94" width="160" height="20" as="geometry"/>
                </mxCell>
                <mxCell id="DHhn664vU1ZmPAHcnY8V-64" value="sistem " style="swimlane;fontStyle=0;align=center;verticalAlign=top;childLayout=stackLayout;horizontal=1;startSize=26;horizontalStack=0;resizeParent=1;resizeLast=0;collapsible=1;marginBottom=0;rounded=0;shadow=0;strokeWidth=1;" parent="WIyWlLk6GJQsqaUBKTNV-1" vertex="1">
                    <mxGeometry x="97.5" y="390" width="165" height="130" as="geometry">
                        <mxRectangle x="340" y="380" width="170" height="26" as="alternateBounds"/>
                    </mxGeometry>
                </mxCell>
                <mxCell id="DHhn664vU1ZmPAHcnY8V-66" value="" style="line;html=1;strokeWidth=1;align=left;verticalAlign=middle;spacingTop=-1;spacingLeft=3;spacingRight=3;rotatable=0;labelPosition=right;points=[];portConstraint=eastwest;" parent="DHhn664vU1ZmPAHcnY8V-64" vertex="1">
                    <mxGeometry y="26" width="165" height="8" as="geometry"/>
                </mxCell>
                <mxCell id="qyWshp1NtrnviAnrthgy-22" value="+discount loser challenge" style="text;html=1;align=center;verticalAlign=middle;resizable=0;points=[];autosize=1;strokeColor=none;" parent="DHhn664vU1ZmPAHcnY8V-64" vertex="1">
                    <mxGeometry y="34" width="165" height="20" as="geometry"/>
                </mxCell>
                <mxCell id="qyWshp1NtrnviAnrthgy-21" value="+discount loser counterattack" style="text;html=1;align=center;verticalAlign=middle;resizable=0;points=[];autosize=1;strokeColor=none;" parent="DHhn664vU1ZmPAHcnY8V-64" vertex="1">
                    <mxGeometry y="54" width="165" height="20" as="geometry"/>
                </mxCell>
                <mxCell id="qyWshp1NtrnviAnrthgy-27" value="+winer challenge(card)&lt;br&gt;&lt;span style=&quot;font-size: 14px&quot;&gt;make decision&lt;/span&gt;" style="text;html=1;align=center;verticalAlign=middle;resizable=0;points=[];autosize=1;strokeColor=none;" parent="DHhn664vU1ZmPAHcnY8V-64" vertex="1">
                    <mxGeometry y="74" width="165" height="30" as="geometry"/>
                </mxCell>
                <mxCell id="DHhn664vU1ZmPAHcnY8V-67" value="counterattack" style="swimlane;fontStyle=0;align=center;verticalAlign=top;childLayout=stackLayout;horizontal=1;startSize=26;horizontalStack=0;resizeParent=1;resizeLast=0;collapsible=1;marginBottom=0;rounded=0;shadow=0;strokeWidth=1;" parent="WIyWlLk6GJQsqaUBKTNV-1" vertex="1">
                    <mxGeometry x="100" y="585" width="160" height="80" as="geometry">
                        <mxRectangle x="340" y="380" width="170" height="26" as="alternateBounds"/>
                    </mxGeometry>
                </mxCell>
                <mxCell id="HgfOn5NiFOgCOV9IpUGR-1" value="+verification counterttack" style="text;html=1;align=center;verticalAlign=middle;resizable=0;points=[];autosize=1;strokeColor=none;" parent="DHhn664vU1ZmPAHcnY8V-67" vertex="1">
                    <mxGeometry y="26" width="160" height="20" as="geometry"/>
                </mxCell>
                <mxCell id="DHhn664vU1ZmPAHcnY8V-70" value="challenge " style="swimlane;fontStyle=0;align=center;verticalAlign=top;childLayout=stackLayout;horizontal=1;startSize=26;horizontalStack=0;resizeParent=1;resizeLast=0;collapsible=1;marginBottom=0;rounded=0;shadow=0;strokeWidth=1;" parent="WIyWlLk6GJQsqaUBKTNV-1" vertex="1">
                    <mxGeometry x="100" y="690" width="160" height="80" as="geometry">
                        <mxRectangle x="340" y="380" width="170" height="26" as="alternateBounds"/>
                    </mxGeometry>
                </mxCell>
                <mxCell id="HgfOn5NiFOgCOV9IpUGR-3" value="+verification challenge" style="text;html=1;align=center;verticalAlign=middle;resizable=0;points=[];autosize=1;strokeColor=none;" parent="DHhn664vU1ZmPAHcnY8V-70" vertex="1">
                    <mxGeometry y="26" width="160" height="20" as="geometry"/>
                </mxCell>
                <mxCell id="qyWshp1NtrnviAnrthgy-33" value="" style="endArrow=none;dashed=1;html=1;dashPattern=1 3;strokeWidth=2;" parent="WIyWlLk6GJQsqaUBKTNV-1" edge="1">
                    <mxGeometry width="50" height="50" relative="1" as="geometry">
                        <mxPoint x="-400" y="40" as="sourcePoint"/>
                        <mxPoint x="-330" y="40" as="targetPoint"/>
                    </mxGeometry>
                </mxCell>
                <mxCell id="qyWshp1NtrnviAnrthgy-34" value="interact on attributes" style="text;html=1;align=center;verticalAlign=middle;resizable=0;points=[];autosize=1;strokeColor=none;fontSize=14;" parent="WIyWlLk6GJQsqaUBKTNV-1" vertex="1">
                    <mxGeometry x="-330" y="30" width="140" height="20" as="geometry"/>
                </mxCell>
                <mxCell id="Sr1ZbedSmIglWVK6Z1gC-0" value="Card (ABC)" style="swimlane;fontStyle=0;childLayout=stackLayout;horizontal=1;startSize=26;fillColor=none;horizontalStack=0;resizeParent=1;resizeParentMax=0;resizeLast=0;collapsible=1;marginBottom=0;" parent="WIyWlLk6GJQsqaUBKTNV-1" vertex="1">
                    <mxGeometry x="-680" y="320" width="140" height="52" as="geometry"/>
                </mxCell>
                <mxCell id="Sr1ZbedSmIglWVK6Z1gC-1" value="# name : string" style="text;strokeColor=none;fillColor=none;align=left;verticalAlign=top;spacingLeft=4;spacingRight=4;overflow=hidden;rotatable=0;points=[[0,0.5],[1,0.5]];portConstraint=eastwest;" parent="Sr1ZbedSmIglWVK6Z1gC-0" vertex="1">
                    <mxGeometry y="26" width="140" height="26" as="geometry"/>
                </mxCell>
                <mxCell id="Sr1ZbedSmIglWVK6Z1gC-44" value="" style="endArrow=none;html=1;edgeStyle=orthogonalEdgeStyle;exitX=0.994;exitY=0.407;exitDx=0;exitDy=0;exitPerimeter=0;entryX=-0.017;entryY=0.128;entryDx=0;entryDy=0;entryPerimeter=0;" parent="WIyWlLk6GJQsqaUBKTNV-1" source="Sr1ZbedSmIglWVK6Z1gC-0" target="DHhn664vU1ZmPAHcnY8V-28" edge="1">
                    <mxGeometry relative="1" as="geometry">
                        <mxPoint x="-390" y="370" as="sourcePoint"/>
                        <mxPoint x="-460" y="320" as="targetPoint"/>
                        <Array as="points">
                            <mxPoint x="-480" y="341"/>
                            <mxPoint x="-480" y="285"/>
                        </Array>
                    </mxGeometry>
                </mxCell>
                <mxCell id="Sr1ZbedSmIglWVK6Z1gC-45" value="parent" style="edgeLabel;resizable=0;html=1;align=left;verticalAlign=bottom;" parent="Sr1ZbedSmIglWVK6Z1gC-44" connectable="0" vertex="1">
                    <mxGeometry x="-1" relative="1" as="geometry"/>
                </mxCell>
                <mxCell id="Sr1ZbedSmIglWVK6Z1gC-46" value="child" style="edgeLabel;resizable=0;html=1;align=right;verticalAlign=bottom;" parent="Sr1ZbedSmIglWVK6Z1gC-44" connectable="0" vertex="1">
                    <mxGeometry x="1" relative="1" as="geometry"/>
                </mxCell>
                <mxCell id="Sr1ZbedSmIglWVK6Z1gC-47" value="" style="endArrow=none;html=1;edgeStyle=orthogonalEdgeStyle;exitX=0.994;exitY=0.407;exitDx=0;exitDy=0;exitPerimeter=0;entryX=-0.017;entryY=0.169;entryDx=0;entryDy=0;entryPerimeter=0;" parent="WIyWlLk6GJQsqaUBKTNV-1" source="Sr1ZbedSmIglWVK6Z1gC-0" target="DHhn664vU1ZmPAHcnY8V-10" edge="1">
                    <mxGeometry relative="1" as="geometry">
                        <mxPoint x="-390" y="370" as="sourcePoint"/>
                        <mxPoint x="-480" y="341" as="targetPoint"/>
                        <Array as="points">
                            <mxPoint x="-480" y="341"/>
                            <mxPoint x="-480" y="152"/>
                        </Array>
                    </mxGeometry>
                </mxCell>
                <mxCell id="Sr1ZbedSmIglWVK6Z1gC-48" value="parent" style="edgeLabel;resizable=0;html=1;align=left;verticalAlign=bottom;" parent="Sr1ZbedSmIglWVK6Z1gC-47" connectable="0" vertex="1">
                    <mxGeometry x="-1" relative="1" as="geometry"/>
                </mxCell>
                <mxCell id="Sr1ZbedSmIglWVK6Z1gC-49" value="child" style="edgeLabel;resizable=0;html=1;align=right;verticalAlign=bottom;" parent="Sr1ZbedSmIglWVK6Z1gC-47" connectable="0" vertex="1">
                    <mxGeometry x="1" relative="1" as="geometry"/>
                </mxCell>
                <mxCell id="Sr1ZbedSmIglWVK6Z1gC-53" value="" style="endArrow=none;html=1;edgeStyle=orthogonalEdgeStyle;exitX=0.994;exitY=0.407;exitDx=0;exitDy=0;exitPerimeter=0;" parent="WIyWlLk6GJQsqaUBKTNV-1" source="Sr1ZbedSmIglWVK6Z1gC-0" edge="1">
                    <mxGeometry relative="1" as="geometry">
                        <mxPoint x="-540.8399999999999" y="341.164" as="sourcePoint"/>
                        <mxPoint x="-370" y="530" as="targetPoint"/>
                        <Array as="points">
                            <mxPoint x="-480" y="341"/>
                            <mxPoint x="-480" y="530"/>
                            <mxPoint x="-373" y="530"/>
                        </Array>
                    </mxGeometry>
                </mxCell>
                <mxCell id="Sr1ZbedSmIglWVK6Z1gC-54" value="parent" style="edgeLabel;resizable=0;html=1;align=left;verticalAlign=bottom;" parent="Sr1ZbedSmIglWVK6Z1gC-53" connectable="0" vertex="1">
                    <mxGeometry x="-1" relative="1" as="geometry"/>
                </mxCell>
                <mxCell id="Sr1ZbedSmIglWVK6Z1gC-55" value="child" style="edgeLabel;resizable=0;html=1;align=right;verticalAlign=bottom;" parent="Sr1ZbedSmIglWVK6Z1gC-53" connectable="0" vertex="1">
                    <mxGeometry x="1" relative="1" as="geometry"/>
                </mxCell>
                <mxCell id="Sr1ZbedSmIglWVK6Z1gC-56" value="" style="endArrow=none;html=1;edgeStyle=orthogonalEdgeStyle;exitX=0.994;exitY=0.407;exitDx=0;exitDy=0;exitPerimeter=0;entryX=-0.012;entryY=0.067;entryDx=0;entryDy=0;entryPerimeter=0;" parent="WIyWlLk6GJQsqaUBKTNV-1" source="Sr1ZbedSmIglWVK6Z1gC-0" target="DHhn664vU1ZmPAHcnY8V-22" edge="1">
                    <mxGeometry relative="1" as="geometry">
                        <mxPoint x="-540.8399999999999" y="341.164" as="sourcePoint"/>
                        <mxPoint x="-490" y="660" as="targetPoint"/>
                        <Array as="points">
                            <mxPoint x="-480" y="341"/>
                            <mxPoint x="-480" y="659"/>
                        </Array>
                    </mxGeometry>
                </mxCell>
                <mxCell id="Sr1ZbedSmIglWVK6Z1gC-57" value="parent" style="edgeLabel;resizable=0;html=1;align=left;verticalAlign=bottom;" parent="Sr1ZbedSmIglWVK6Z1gC-56" connectable="0" vertex="1">
                    <mxGeometry x="-1" relative="1" as="geometry"/>
                </mxCell>
                <mxCell id="Sr1ZbedSmIglWVK6Z1gC-58" value="child" style="edgeLabel;resizable=0;html=1;align=right;verticalAlign=bottom;" parent="Sr1ZbedSmIglWVK6Z1gC-56" connectable="0" vertex="1">
                    <mxGeometry x="1" relative="1" as="geometry"/>
                </mxCell>
                <mxCell id="Sr1ZbedSmIglWVK6Z1gC-59" value="" style="endArrow=none;html=1;edgeStyle=orthogonalEdgeStyle;exitX=0.994;exitY=0.407;exitDx=0;exitDy=0;exitPerimeter=0;entryX=-0.006;entryY=0.155;entryDx=0;entryDy=0;entryPerimeter=0;" parent="WIyWlLk6GJQsqaUBKTNV-1" source="Sr1ZbedSmIglWVK6Z1gC-0" target="DHhn664vU1ZmPAHcnY8V-4" edge="1">
                    <mxGeometry relative="1" as="geometry">
                        <mxPoint x="-540.8399999999999" y="341.164" as="sourcePoint"/>
                        <mxPoint x="-450" y="450" as="targetPoint"/>
                        <Array as="points">
                            <mxPoint x="-480" y="341"/>
                            <mxPoint x="-480" y="417"/>
                        </Array>
                    </mxGeometry>
                </mxCell>
                <mxCell id="Sr1ZbedSmIglWVK6Z1gC-60" value="parent" style="edgeLabel;resizable=0;html=1;align=left;verticalAlign=bottom;" parent="Sr1ZbedSmIglWVK6Z1gC-59" connectable="0" vertex="1">
                    <mxGeometry x="-1" relative="1" as="geometry"/>
                </mxCell>
                <mxCell id="Sr1ZbedSmIglWVK6Z1gC-61" value="child" style="edgeLabel;resizable=0;html=1;align=right;verticalAlign=bottom;" parent="Sr1ZbedSmIglWVK6Z1gC-59" connectable="0" vertex="1">
                    <mxGeometry x="1" relative="1" as="geometry"/>
                </mxCell>
                <mxCell id="_zhNrmmZCyxZv-S0Ss4K-0" value="1" style="endArrow=open;html=1;endSize=12;startArrow=diamondThin;startSize=14;startFill=1;edgeStyle=orthogonalEdgeStyle;align=left;verticalAlign=bottom;entryX=-0.021;entryY=0.115;entryDx=0;entryDy=0;entryPerimeter=0;exitX=1;exitY=0.6;exitDx=0;exitDy=0;exitPerimeter=0;" parent="WIyWlLk6GJQsqaUBKTNV-1" source="qyWshp1NtrnviAnrthgy-28" target="DHhn664vU1ZmPAHcnY8V-42" edge="1">
                    <mxGeometry x="-1" y="3" relative="1" as="geometry">
                        <mxPoint x="20" y="280" as="sourcePoint"/>
                        <mxPoint x="180" y="280" as="targetPoint"/>
                    </mxGeometry>
                </mxCell>
            </root>
        </mxGraphModel>
    </diagram>
</mxfile>